<svg width="139" height="139" viewBox="0 0 139 139" fill="none" xmlns="http://www.w3.org/2000/svg">
<path d="M125.454 111.822L125.455 111.835C125.537 112.525 125.47 113.224 125.256 113.886C125.043 114.547 124.689 115.154 124.219 115.666L124.214 115.671L124.21 115.677C123.742 116.196 123.171 116.613 122.533 116.899C121.896 117.185 121.208 117.336 120.51 117.342H17.7785C17.081 117.336 16.3922 117.185 15.7559 116.899C15.1182 116.613 14.5471 116.196 14.079 115.677L14.0743 115.671L14.0695 115.666C13.5995 115.154 13.2457 114.547 13.0323 113.886C12.819 113.224 12.7512 112.525 12.8335 111.835L12.8336 111.835L12.8349 111.822L20.5056 42.6782L20.5059 42.6753C20.6395 41.4496 21.2228 40.3169 22.1431 39.4963C23.0634 38.6757 24.2552 38.2256 25.4882 38.2328V38.2328H25.497H45.484H46.8474L46.9772 36.8757C47.5047 31.3621 50.0681 26.243 54.1668 22.5176C58.2656 18.7923 63.6056 16.7281 69.1443 16.7281C74.6831 16.7281 80.0231 18.7923 84.1219 22.5176C88.2206 26.243 90.784 31.3621 91.3115 36.8757L91.4413 38.2328H92.8046L112.792 38.2329L112.8 38.2328C114.033 38.2256 115.225 38.6757 116.146 39.4963C117.066 40.3169 117.649 41.4496 117.783 42.6753L117.783 42.6782L125.454 111.822ZM88.4831 38.2328H90.1644L89.9734 36.5625C89.3885 31.4457 86.9438 26.7222 83.104 23.29C79.2643 19.8578 74.2972 17.9563 69.1471 17.9468L69.1416 17.9468C63.9915 17.9563 59.0244 19.8578 55.1846 23.29C51.3449 26.7222 48.9002 31.4457 48.3153 36.5625L48.1243 38.2328H49.8056H88.4831ZM120.516 116.02H120.519C121.025 116.019 121.526 115.912 121.988 115.705C122.441 115.501 122.848 115.207 123.182 114.839C123.543 114.459 123.814 114.003 123.975 113.504C124.136 113.005 124.182 112.476 124.112 111.956L116.446 42.8557C116.368 41.9426 115.946 41.0928 115.265 40.4794C114.582 39.8649 113.691 39.5343 112.773 39.5543H92.9127H91.4127V41.0543V56.1796C91.4127 56.3549 91.343 56.523 91.2191 56.6469C91.0952 56.7708 90.9272 56.8404 90.7519 56.8404C90.5767 56.8404 90.4086 56.7708 90.2847 56.6469C90.1608 56.523 90.0912 56.3549 90.0912 56.1796V41.0543V39.5543H88.5912H49.6975H48.1975V41.0543V56.1796C48.1975 56.3549 48.1279 56.523 48.004 56.6469C47.8801 56.7708 47.712 56.8404 47.5368 56.8404C47.3615 56.8404 47.1934 56.7708 47.0695 56.6469C46.9456 56.523 46.876 56.3549 46.876 56.1796V41.0543V39.5543H45.376H25.5156C24.598 39.5343 23.7068 39.8649 23.0241 40.4794C22.3425 41.0928 21.9204 41.9425 21.843 42.8555L14.1771 111.957C14.1062 112.476 14.1529 113.005 14.3139 113.504C14.4749 114.003 14.746 114.459 15.1069 114.839C15.4409 115.207 15.8473 115.501 16.3007 115.705C16.7628 115.912 17.2633 116.019 17.7697 116.02H17.7723H120.516Z" fill="white" stroke="url(#paint0_linear_37_33)" stroke-width="3"/>
<defs>
<linearGradient id="paint0_linear_37_33" x1="69.1443" y1="15.2281" x2="69.1443" y2="118.842" gradientUnits="userSpaceOnUse">
<stop stop-color="#7E0276" stop-opacity="0.54"/>
<stop offset="0.552083" stop-color="#2E9CC3" stop-opacity="0.7"/>
<stop offset="1" stop-color="#CF16C3" stop-opacity="0.63"/>
</linearGradient>
</defs>
</svg>
