<svg width="21" height="20" viewBox="0 0 21 20" fill="none" xmlns="http://www.w3.org/2000/svg">
<path d="M18.1411 5.67638C17.8845 5.08239 17.5146 4.54412 17.0521 4.09171C16.5892 3.63794 16.0434 3.27734 15.4444 3.02952C14.8234 2.77152 14.1572 2.63946 13.4847 2.641C12.5411 2.641 11.6206 2.89938 10.8206 3.38741C10.6292 3.50415 10.4474 3.63238 10.2751 3.77209C10.1029 3.63238 9.92106 3.50415 9.72967 3.38741C8.92968 2.89938 8.00911 2.641 7.06558 2.641C6.38617 2.641 5.7278 2.77115 5.1058 3.02952C4.50484 3.27832 3.96322 3.63621 3.49816 4.09171C3.035 4.54361 2.66501 5.08201 2.40917 5.67638C2.14315 6.29456 2.00726 6.95101 2.00726 7.6266C2.00726 8.26391 2.13741 8.92802 2.39578 9.60361C2.61204 10.1682 2.92209 10.7538 3.31825 11.3452C3.946 12.2811 4.80915 13.2572 5.88091 14.2466C7.65697 15.8868 9.4158 17.0198 9.49044 17.0657L9.94402 17.3566C10.145 17.4849 10.4033 17.4849 10.6043 17.3566L11.0579 17.0657C11.1325 17.0179 12.8894 15.8868 14.6674 14.2466C15.7392 13.2572 16.6023 12.2811 17.2301 11.3452C17.6262 10.7538 17.9382 10.1682 18.1525 9.60361C18.4109 8.92802 18.5411 8.26391 18.5411 7.6266C18.543 6.95101 18.4071 6.29456 18.1411 5.67638Z" fill="#d71920"/>
</svg>
